HIERARCHY
ROOT Hips
{
	OFFSET	0.00	0.00	0.00
	CHANNELS 6 Xposition Yposition Zposition Zrotation Xrotation Yrotation
	JOINT LeftUpLeg
	{
		OFFSET	 0.126116	-0.065224	 0.014019
		CHANNELS 3 Zrotation Xrotation Yrotation
		JOINT LeftLeg
		{
			OFFSET	 0.000000	 0.569914	 0.000000
			CHANNELS 3 Zrotation Xrotation Yrotation
			JOINT LeftFoot
			{
				OFFSET	 0.000000	 0.544423	 0.000000
				CHANNELS 3 Zrotation Xrotation Yrotation
				JOINT LeftToeBase
				{
					OFFSET	 0.000000	 0.207117	 0.000000
					CHANNELS 3 Zrotation Xrotation Yrotation
					End Site
					{
						OFFSET	 0.000000	 0.207117	 0.000000
					}
				}
			}
		}
	}
	JOINT RightUpLeg
	{
		OFFSET	-0.124023	-0.065224	 0.008373
		CHANNELS 3 Zrotation Xrotation Yrotation
		JOINT RightLeg
		{
			OFFSET	 0.000000	 0.570047	 0.000000
			CHANNELS 3 Zrotation Xrotation Yrotation
			JOINT RightFoot
			{
				OFFSET	 0.000000	 0.544354	 0.000000
				CHANNELS 3 Zrotation Xrotation Yrotation
				JOINT RightToeBase
				{
					OFFSET	 0.000000	 0.207540	 0.000000
					CHANNELS 3 Zrotation Xrotation Yrotation
					End Site
					{
						OFFSET	 0.000000	 0.207540	 0.000000
					}
				}
			}
		}
	}
	JOINT Spine
	{
		OFFSET	 0.000184	 0.117403	 0.007763
		CHANNELS 3 Zrotation Xrotation Yrotation
		JOINT Spine1
		{
			OFFSET	 0.000000	 0.137269	 0.000000
			CHANNELS 3 Zrotation Xrotation Yrotation
			JOINT Spine2
			{
				OFFSET	 0.000000	 0.156879	 0.000000
				CHANNELS 3 Zrotation Xrotation Yrotation
				JOINT LeftShoulder
				{
					OFFSET	 0.080501	 0.160143	 0.002496
					CHANNELS 3 Zrotation Xrotation Yrotation
					JOINT LeftArm
					{
						OFFSET	 0.000000	 0.164363	 0.000000
						CHANNELS 3 Zrotation Xrotation Yrotation
						JOINT LeftForeArm
						{
							OFFSET	 0.000000	 0.364576	 0.000000
							CHANNELS 3 Zrotation Xrotation Yrotation
							JOINT LeftHand
							{
								OFFSET	 0.000000	 0.360812	 0.000000
								CHANNELS 3 Zrotation Xrotation Yrotation
								JOINT LeftHandIndex1
								{
									OFFSET	 0.000000	 0.086006	 0.000000
									CHANNELS 3 Zrotation Xrotation Yrotation
									JOINT LeftHandIndex2
									{
										OFFSET	 0.000000	 0.047237	 0.000000
										CHANNELS 3 Zrotation Xrotation Yrotation
										JOINT LeftHandIndex3
										{
											OFFSET	-0.004284	 0.038165	 0.000551
											CHANNELS 3 Zrotation Xrotation Yrotation
											End Site
											{
												OFFSET	-0.004284	 0.038165	 0.000551
											}
										}
									}
								}
							}
						}
					}
				}
				JOINT Neck
				{
					OFFSET	 0.000000	 0.176489	 0.000000
					CHANNELS 3 Zrotation Xrotation Yrotation
					JOINT Head
					{
						OFFSET	 0.000000	 0.077941	 0.001747
						CHANNELS 3 Zrotation Xrotation Yrotation
						End Site
						{
							OFFSET	 0.000000	 0.077941	 0.001747
						}
					}
				}
				JOINT RightShoulder
				{
					OFFSET	-0.080363	 0.159706	-0.000306
					CHANNELS 3 Zrotation Xrotation Yrotation
					JOINT RightArm
					{
						OFFSET	 0.000000	 0.164196	 0.000000
						CHANNELS 3 Zrotation Xrotation Yrotation
						JOINT RightForeArm
						{
							OFFSET	 0.000000	 0.365611	 0.000000
							CHANNELS 3 Zrotation Xrotation Yrotation
							JOINT RightHand
							{
								OFFSET	 0.000000	 0.360648	 0.000000
								CHANNELS 3 Zrotation Xrotation Yrotation
								JOINT RightHandIndex1
								{
									OFFSET	 0.000000	 0.069977	 0.000000
									CHANNELS 3 Zrotation Xrotation Yrotation
									JOINT RightHandIndex2
									{
										OFFSET	 0.000000	 0.052305	 0.000000
										CHANNELS 3 Zrotation Xrotation Yrotation
										JOINT RightHandIndex3
										{
											OFFSET	 0.009002	 0.042196	 0.000782
											CHANNELS 3 Zrotation Xrotation Yrotation
											End Site
											{
												OFFSET	 0.009002	 0.042196	 0.000782
											}
										}
									}
								}
							}
						}
					}
				}
			}
		}
	}
}
MOTION
Frames:    4
Frame Time: 0.03333334
-0.055560	 1.181595	-4.023138	-3.851028	-0.768818	-171.686100	 178.911200	-2.805534	-27.002100	 4.538847	-30.838720	 8.237006	 144.068700	 86.573150	-142.325200	 1.644779	 32.862040	-2.875660	 153.604000	 32.357930	 45.183390	-6.333314	-55.719940	 8.463747	 146.600200	 82.363810	-143.109200	-1.664000	 33.083080	 2.883918	-5.115177	 5.276510	 37.893040	-2.664789	 4.722246	 2.240071	 2.856899	-4.988412	-11.713000	-121.330900	 9.237304	 94.937410	 30.552150	 3.486110	-5.823992	 16.235780	-0.209959	-33.565760	 41.757030	 7.055264	 44.229980	 4.704298	 19.724680	-1.734331	-5.862399	 22.100410	 2.443278	 5.352339	 4.828194	-0.160249	-0.174917	-4.871759	 0.193249	-1.618767	-3.019345	-5.937897	 118.073000	-1.060485	-90.334480	 9.602714	 41.150270	-9.191312	-17.409410	-0.202690	 33.539460	-2.181877	 2.561799	-44.910560	-1.734988	 20.797250	 0.988719	 14.698190	 39.906530	-9.966387	-8.532926	 18.826490	-0.889718
-0.047051	 1.165771	-4.128565	-3.646804	-0.760597	-171.355500	 179.238900	-11.120660	-25.733240	 3.341275	-23.735980	 6.564177	 7.672265	 88.851920	-8.686738	 2.171897	 38.775330	-3.161478	 154.281900	 37.185220	 44.582570	-6.084280	-54.646770	 8.072946	 153.767200	 83.862530	-152.664600	-1.731924	 33.889210	 2.918254	-4.398080	 5.664973	 33.306630	-2.371886	 5.046848	 1.820257	 2.794031	-5.139795	-11.730110	-121.237700	 9.363667	 94.991150	 28.472960	 1.013157	-6.708951	 14.577820	-0.205815	-29.258660	 45.531830	 9.535270	 41.560970	 4.838377	 19.995550	-1.797738	-5.861783	 22.567800	 2.495154	 5.379319	 5.463036	-0.149090	-0.162218	-4.952844	 0.232957	-1.495263	-3.053092	-5.571441	 118.178900	-1.295678	-90.229420	 11.908300	 39.678440	-9.366650	-15.793750	-0.201730	 29.231560	-1.566056	 7.499568	-49.910890	-1.606702	 17.593280	 0.931888	 14.144150	 36.859950	-8.967100	-8.520271	 15.766790	-0.694172
-0.035232	 1.143125	-4.241553	-3.381364	-0.745036	-170.920500	-179.559600	-18.740310	-24.052900	 2.584201	-18.786620	 4.873811	-24.955840	 84.439300	 20.802710	 3.012009	 46.546120	-3.701742	 154.342800	 41.964290	 43.877840	-7.416421	-59.777660	 6.101789	 172.550000	 78.683770	-171.693100	-1.822990	 34.947430	 2.965606	-3.236336	 6.150229	 25.830250	-2.250291	 4.760347	 1.440343	 2.837457	-5.017144	-11.748460	-121.115300	 9.529678	 95.061400	 26.525020	 0.120598	-8.459437	 12.375870	-0.205219	-23.249890	 49.862690	 12.007060	 38.068110	 5.015228	 20.350920	-1.882170	-5.861669	 23.181360	 2.563517	 5.414596	 6.296438	-0.134879	-0.145460	-5.059274	 0.285119	-1.333408	-3.096215	-5.090450	 118.318600	-1.604099	-90.090900	 12.847790	 38.410640	-8.157290	-13.575190	-0.201375	 23.222810	 2.274481	 13.555840	-54.515620	-1.446138	 13.385190	 0.869754	 13.543010	 32.848560	-7.762771	-8.487708	 11.748600	-0.440125
-0.027587	 1.133807	-4.317362	-2.768296	-0.306907	-169.986900	-178.657700	-28.151510	-22.722670	 1.147338	-8.590459	 3.274196	-19.934000	 72.229230	 13.236610	 4.335263	 55.645530	-4.321169	 156.471300	 41.999280	 42.646410	-7.410429	-59.757600	 6.233490	 178.014900	 82.153220	-179.880800	-1.844299	 35.191330	 2.976899	-1.951916	 6.610369	 19.215160	-2.053962	 4.423096	 0.994977	 2.919833	-4.758274	-11.833870	-121.053300	 9.432161	 95.006100	 25.488610	-1.813702	-8.240535	 10.733000	-0.203993	-18.808810	 51.174670	 15.915890	 33.525470	 5.074546	 20.564090	-1.916788	-5.862162	 23.679250	 2.619225	 5.441362	 6.931088	-0.124390	-0.128923	-5.126743	 0.298284	-1.383102	-2.678003	-4.801097	 118.549100	-1.937563	-89.941570	 13.757350	 37.349250	-7.811157	-11.880140	-0.198815	 18.782070	 3.509444	 17.038090	-54.800840	-1.446488	 10.937170	 0.872403	 13.256380	 30.562890	-7.122789	-8.461948	 9.512076	-0.299200
